<svg width="347" height="135" viewBox="0 0 347 135" fill="none" xmlns="http://www.w3.org/2000/svg">
<path d="M180.957 5.05273H168.16V109.812H180.957V5.05273Z" fill="#E13338"/>
<path d="M197.289 4.98926H184.492V109.786H197.289V4.98926Z" fill="#E13338"/>
<path d="M214.375 5.03418H201.578V109.831H214.375V5.03418Z" fill="#E13338"/>
<path d="M163.895 9.67383V35.6302L120.338 109.888H105.402L163.895 9.67383Z" fill="#E13338"/>
<path d="M163.893 44.873V68.6902L138.383 109.85H124.52L163.893 44.873Z" fill="#E13338"/>
<path d="M6.57031 128.264L12.1561 118.051H13.9779L19.6653 128.264H17.7864L16.4788 125.744H9.56634L8.25875 128.264H6.57666H6.57031ZM10.2709 124.437H15.7742L13.0257 119.219L10.2709 124.437Z" fill="#231F20"/>
<path d="M22.332 121.435L22.3701 122.603V128.265H21.0625V119.873H22.3701L26.5468 125.313L30.387 119.873H31.8533V128.265H30.387V122.603C30.387 122.196 30.4187 121.803 30.4886 121.435C30.3045 121.962 30.1204 122.355 29.9363 122.603L26.7118 126.938H26.2992L22.9541 122.641C22.7002 122.323 22.497 121.923 22.3384 121.435H22.332Z" fill="#231F20"/>
<path d="M34.5625 128.265V119.873H43.0174V121.124H36.1494V123.263H40.2816V124.513H36.1494V127.033H43.0936V128.265H34.5625Z" fill="#231F20"/>
<path d="M44.8696 128.265V119.873H51.617C52.7913 119.873 53.3753 120.413 53.3753 121.492V123.371C53.3753 124.437 52.7913 124.97 51.617 124.97H50.5062L54.2068 128.265H52.0868L48.7416 124.97H46.4502V128.265H44.8633H44.8696ZM50.9252 121.105H46.4565V123.802H50.9252C51.3441 123.802 51.6107 123.707 51.7186 123.51C51.7821 123.39 51.8202 123.206 51.8202 122.958V121.955C51.8202 121.39 51.5218 121.111 50.9315 121.111L50.9252 121.105Z" fill="#231F20"/>
<path d="M57.3642 128.264H55.7773V119.892H57.3642V128.264Z" fill="#231F20"/>
<path d="M67.2518 121.124H61.3994V127.014H67.2518V125.015L68.8387 125.313V126.303C68.8387 127.065 68.6927 127.586 68.4007 127.859C68.1087 128.132 67.5692 128.271 66.7757 128.271H61.8501C61.0439 128.271 60.5044 128.138 60.2251 127.865C59.9458 127.592 59.8125 127.072 59.8125 126.291V121.879C59.8125 121.098 59.9521 120.571 60.2378 120.298C60.5234 120.019 61.0566 119.886 61.8501 119.886H66.7757C67.5692 119.886 68.1087 120.025 68.4007 120.305C68.6927 120.584 68.8387 121.111 68.8387 121.892V122.685L67.2518 122.945V121.143V121.124Z" fill="#231F20"/>
<path d="M69.6523 128.265L74.5019 119.873H75.9491L80.9192 128.265H79.199L78.1072 126.303H72.3056L71.2392 128.265H69.6523ZM72.9784 125.091H77.4344L75.2001 121.098L72.9848 125.091H72.9784Z" fill="#231F20"/>
<path d="M83.5918 121.555C83.6679 122.044 83.7124 122.546 83.7124 123.06V128.265H82.2461V119.873H83.4521L89.6092 125.358C89.9901 125.7 90.3265 126.081 90.6185 126.507C90.5233 126.005 90.4788 125.485 90.4788 124.945V119.879H91.9451V128.271H90.8597L84.5883 122.711C84.1694 122.342 83.8393 121.961 83.5981 121.562L83.5918 121.555Z" fill="#231F20"/>
<path d="M101.547 128.264V118.051H103.254V128.264H101.547Z" fill="#231F20"/>
<path d="M108.021 121.555C108.098 122.044 108.142 122.546 108.142 123.06V128.265H106.676V119.873H107.882L114.039 125.358C114.42 125.7 114.756 126.081 115.048 126.507C114.953 126.005 114.909 125.485 114.909 124.945V119.879H116.375V128.271H115.289L109.018 122.711C108.599 122.342 108.269 121.961 108.028 121.562L108.021 121.555Z" fill="#231F20"/>
<path d="M123.113 121.124V128.265H121.526V121.124H117.559V119.873H127.08V121.124H123.113Z" fill="#231F20"/>
<path d="M128.266 128.265V119.873H136.721V121.124H129.853V123.263H133.985V124.513H129.853V127.033H136.797V128.265H128.266Z" fill="#231F20"/>
<path d="M138.581 128.265V119.873H145.328C146.502 119.873 147.086 120.413 147.086 121.492V123.371C147.086 124.437 146.502 124.97 145.328 124.97H144.217L147.918 128.265H145.798L142.453 124.97H140.161V128.265H138.574H138.581ZM144.636 121.105H140.167V123.802H144.636C145.055 123.802 145.322 123.707 145.43 123.51C145.493 123.39 145.531 123.206 145.531 122.958V121.955C145.531 121.39 145.233 121.111 144.642 121.111L144.636 121.105Z" fill="#231F20"/>
<path d="M150.873 121.555C150.949 122.044 150.994 122.546 150.994 123.06V128.265H149.527V119.873H150.733L156.89 125.358C157.271 125.7 157.608 126.081 157.9 126.507C157.804 126.005 157.76 125.485 157.76 124.945V119.879H159.226V128.271H158.141L151.87 122.711C151.451 122.342 151.121 121.961 150.879 121.562L150.873 121.555Z" fill="#231F20"/>
<path d="M160.547 128.265L165.396 119.873H166.844L171.814 128.265H170.094L169.002 126.303H163.2L162.134 128.265H160.547ZM163.873 125.091H168.329L166.095 121.098L163.879 125.091H163.873Z" fill="#231F20"/>
<path d="M177.187 121.124V128.265H175.6V121.124H171.633V119.873H181.154V121.124H177.187Z" fill="#231F20"/>
<path d="M183.895 128.264H182.309V119.892H183.895V128.264Z" fill="#231F20"/>
<path d="M186.344 121.873C186.344 121.105 186.49 120.584 186.782 120.298C187.074 120.013 187.613 119.873 188.407 119.873H194.462C195.256 119.873 195.795 120.013 196.087 120.298C196.379 120.584 196.525 121.105 196.525 121.873V126.284C196.525 127.052 196.379 127.573 196.087 127.846C195.795 128.125 195.256 128.259 194.462 128.259H188.407C187.601 128.259 187.055 128.125 186.775 127.852C186.49 127.579 186.35 127.059 186.35 126.278V121.866L186.344 121.873ZM187.931 127.014H194.932V121.124H187.931V127.014Z" fill="#231F20"/>
<path d="M200.361 121.555C200.437 122.044 200.482 122.546 200.482 123.06V128.265H199.016V119.873H200.222L206.379 125.358C206.76 125.7 207.096 126.081 207.388 126.507C207.293 126.005 207.248 125.485 207.248 124.945V119.879H208.715V128.271H207.629L201.358 122.711C200.933 122.342 200.609 121.961 200.368 121.562L200.361 121.555Z" fill="#231F20"/>
<path d="M210.035 128.265L214.885 119.873H216.332L221.302 128.265H219.582L218.49 126.303H212.688L211.622 128.265H210.035ZM213.361 125.091H217.817L215.583 121.098L213.368 125.091H213.361Z" fill="#231F20"/>
<path d="M222.629 128.265V119.873H224.216V126.995H230.747V128.265H222.629Z" fill="#231F20"/>
<path d="M238.941 128.264V118.051H240.649V128.264H238.941Z" fill="#231F20"/>
<path d="M245.416 121.555C245.492 122.044 245.537 122.546 245.537 123.06V128.265H244.07V119.873H245.276L251.433 125.358C251.814 125.7 252.151 126.081 252.443 126.507C252.347 126.005 252.303 125.485 252.303 124.945V119.879H253.769V128.271H252.684L246.413 122.711C245.987 122.342 245.664 121.961 245.422 121.562L245.416 121.555Z" fill="#231F20"/>
<path d="M261.936 119.873C263.491 119.873 264.615 120.089 265.3 120.527C266.512 121.295 267.122 122.463 267.122 124.05C267.122 126.862 265.395 128.265 261.936 128.265H257.105V119.873H261.936ZM261.758 121.124H258.692V127.014H261.758C263.078 127.014 264.037 126.799 264.634 126.361C265.237 125.923 265.535 125.148 265.535 124.037C265.535 122.926 265.218 122.209 264.583 121.758C264.005 121.333 263.059 121.124 261.752 121.124H261.758Z" fill="#231F20"/>
<path d="M271.288 119.873V127.014H277.419V119.873H279.006V126.284C279.006 127.052 278.867 127.573 278.581 127.846C278.295 128.125 277.756 128.259 276.95 128.259H271.757C270.964 128.259 270.424 128.119 270.139 127.846C269.847 127.567 269.707 127.046 269.707 126.284V119.873H271.294H271.288Z" fill="#231F20"/>
<path d="M289.11 121.124H283.238V123.288H288.621C289.414 123.288 289.948 123.428 290.233 123.707C290.519 123.986 290.658 124.507 290.658 125.275V126.284C290.658 127.052 290.519 127.573 290.233 127.852C289.948 128.132 289.408 128.271 288.621 128.271H283.518C282.711 128.271 282.166 128.138 281.886 127.859C281.601 127.586 281.461 127.065 281.461 126.303V126.069L282.908 125.77V127.014H289.243V124.634H283.841C283.048 124.634 282.515 124.494 282.229 124.221C281.943 123.942 281.804 123.428 281.804 122.66V121.866C281.804 121.092 281.943 120.565 282.229 120.286C282.515 120.006 283.048 119.873 283.841 119.873H288.513C289.262 119.873 289.795 120.006 290.106 120.267C290.417 120.533 290.57 121.016 290.57 121.714V121.911L289.122 122.228V121.117L289.11 121.124Z" fill="#231F20"/>
<path d="M297.179 121.124V128.265H295.592V121.124H291.625V119.873H301.146V121.124H297.179Z" fill="#231F20"/>
<path d="M302.34 128.265V119.873H309.087C310.262 119.873 310.852 120.413 310.852 121.492V123.371C310.852 124.437 310.268 124.97 309.094 124.97H307.983L311.683 128.265H309.563L306.218 124.97H303.927V128.265H302.34ZM308.395 121.105H303.927V123.802H308.395C308.814 123.802 309.081 123.707 309.182 123.51C309.246 123.39 309.284 123.206 309.284 122.958V121.955C309.284 121.39 308.986 121.111 308.395 121.111V121.105Z" fill="#231F20"/>
<path d="M314.833 128.264H313.246V119.892H314.833V128.264Z" fill="#231F20"/>
<path d="M317.477 128.265V119.873H325.931V121.124H319.063V123.263H323.196V124.513H319.063V127.033H326.008V128.265H317.477Z" fill="#231F20"/>
<path d="M335.194 121.124H329.323V123.288H334.705C335.499 123.288 336.032 123.428 336.318 123.707C336.603 123.986 336.743 124.507 336.743 125.275V126.284C336.743 127.052 336.603 127.573 336.318 127.852C336.032 128.132 335.492 128.271 334.699 128.271H329.596C328.79 128.271 328.244 128.138 327.964 127.859C327.679 127.586 327.539 127.065 327.539 126.303V126.069L328.986 125.77V127.014H335.321V124.634H329.919C329.126 124.634 328.593 124.494 328.307 124.221C328.021 123.942 327.882 123.428 327.882 122.66V121.866C327.882 121.092 328.021 120.565 328.307 120.286C328.593 120.006 329.126 119.873 329.919 119.873H334.591C335.34 119.873 335.873 120.006 336.184 120.267C336.495 120.533 336.648 121.016 336.648 121.714V121.911L335.201 122.228V121.117L335.194 121.124Z" fill="#231F20"/>
</svg>
